<svg xmlns="http://www.w3.org/2000/svg" xmlns:xlink="http://www.w3.org/1999/xlink" width="500" zoomAndPan="magnify" viewBox="0 0 375 374.999991" height="500" preserveAspectRatio="xMidYMid meet" version="1.0"><defs><g/><clipPath id="9d3865feb6"><path d="M 170.511719 52.550781 L 250.011719 52.550781 L 250.011719 97.550781 L 170.511719 97.550781 Z M 170.511719 52.550781 " clip-rule="nonzero"/></clipPath></defs><g clip-path="url(#9d3865feb6)"><path fill="#d4b34a" d="M 250.199219 68.140625 L 248.015625 70.175781 L 248.339844 71.570312 C 237.871094 83.171875 230.960938 88.660156 228.945312 85.734375 C 227.332031 80.1875 228.140625 74.699219 230.675781 69.253906 L 232.828125 68.246094 L 233.242188 63.46875 L 229.933594 66.9375 L 230.609375 69.261719 C 227.875 73.851562 224.933594 77.917969 221.574219 80.890625 C 218.03125 84.019531 216.953125 84.457031 214.664062 79.535156 C 212.964844 75.890625 212.386719 71.003906 211.246094 66.738281 L 214.144531 63.355469 L 210.355469 52.5625 L 206.566406 63.355469 L 209.464844 66.738281 C 208.324219 71.003906 207.746094 75.890625 206.046875 79.535156 C 203.757812 84.457031 202.679688 84.019531 199.136719 80.890625 C 195.777344 77.917969 192.835938 73.851562 190.101562 69.257812 L 190.777344 66.9375 L 187.46875 63.46875 L 187.882812 68.246094 L 190.039062 69.253906 C 192.574219 74.699219 193.378906 80.1875 191.769531 85.734375 C 189.75 88.660156 182.839844 83.171875 172.371094 71.570312 L 172.691406 70.175781 L 170.511719 68.140625 L 170.941406 71.09375 L 172.234375 71.613281 L 187.148438 97.570312 L 182.566406 84.960938 C 182.660156 85.035156 182.753906 85.109375 182.847656 85.183594 C 185.179688 87.054688 189.269531 90.082031 192.371094 88.277344 C 192.894531 87.972656 193.335938 87.554688 193.679688 87.054688 L 193.894531 86.746094 L 194 86.382812 C 194.625 84.230469 194.917969 82.089844 194.921875 79.972656 C 195.773438 80.910156 196.664062 81.804688 197.601562 82.628906 C 199.175781 84.023438 201.171875 85.859375 203.449219 85.523438 C 205.914062 85.160156 207.21875 82.535156 208.15625 80.515625 C 209.199219 78.277344 209.820312 75.78125 210.355469 73.335938 C 210.894531 75.78125 211.515625 78.277344 212.558594 80.515625 C 213.496094 82.535156 214.800781 85.160156 217.261719 85.523438 C 219.539062 85.859375 221.535156 84.023438 223.113281 82.628906 C 224.046875 81.804688 224.941406 80.910156 225.792969 79.972656 C 225.796875 82.089844 226.085938 84.230469 226.710938 86.382812 L 226.816406 86.746094 L 227.03125 87.054688 C 227.375 87.554688 227.816406 87.972656 228.339844 88.277344 C 231.441406 90.082031 235.53125 87.054688 237.867188 85.183594 C 237.960938 85.109375 238.050781 85.035156 238.144531 84.960938 L 234.125 96.636719 L 248.476562 71.613281 L 249.769531 71.09375 Z M 250.199219 68.140625 " fill-opacity="1" fill-rule="evenodd"/></g><path fill="#d4b34a" d="M 202.53125 77.773438 C 202.796875 78.992188 203.097656 80.226562 203.503906 81.40625 C 203.777344 81.046875 204.148438 80.453125 204.632812 79.449219 C 203.890625 76.710938 203.484375 73.597656 202.53125 71.09375 C 201.496094 73.800781 201.105469 77.21875 200.238281 80.105469 C 200.621094 80.445312 201.128906 80.878906 201.609375 81.242188 C 201.992188 80.113281 202.277344 78.9375 202.53125 77.773438 Z M 202.53125 77.773438 " fill-opacity="1" fill-rule="evenodd"/><path fill="#d4b34a" d="M 218.160156 77.773438 C 218.414062 78.941406 218.699219 80.121094 219.082031 81.253906 C 219.5625 80.894531 220.070312 80.460938 220.457031 80.121094 C 219.585938 77.230469 219.195312 73.804688 218.160156 71.09375 C 217.207031 73.585938 216.800781 76.6875 216.0625 79.417969 C 216.546875 80.417969 216.917969 81.023438 217.191406 81.382812 C 217.59375 80.210938 217.894531 78.984375 218.160156 77.773438 Z M 218.160156 77.773438 " fill-opacity="1" fill-rule="evenodd"/><path fill="#d4b34a" d="M 231.972656 84.773438 C 232.257812 82.917969 232.742188 80.96875 232.789062 79.226562 C 231.695312 80.382812 230.734375 81.925781 229.730469 83.335938 C 229.824219 83.851562 229.9375 84.367188 230.074219 84.878906 C 230.378906 84.480469 230.667969 84.070312 230.953125 83.664062 C 230.863281 84.164062 230.78125 84.671875 230.714844 85.183594 C 231.027344 85.140625 231.4375 85.023438 231.972656 84.773438 Z M 231.972656 84.773438 " fill-opacity="1" fill-rule="evenodd"/><path fill="#d4b34a" d="M 190.980469 83.339844 C 189.976562 81.925781 189.015625 80.382812 187.921875 79.226562 C 187.96875 80.96875 188.453125 82.917969 188.738281 84.773438 C 189.273438 85.023438 189.683594 85.140625 189.996094 85.179688 C 189.929688 84.671875 189.847656 84.164062 189.757812 83.660156 C 190.042969 84.070312 190.332031 84.480469 190.636719 84.875 C 190.773438 84.367188 190.890625 83.851562 190.980469 83.339844 Z M 190.980469 83.339844 " fill-opacity="1" fill-rule="evenodd"/><g fill="#d4b34a" fill-opacity="1"><g transform="translate(124.797594, 192.460511)"><g><path d="M 118.578125 13.25 C 119.972656 14.0625 121.554688 14.828125 123.328125 15.546875 C 125.109375 16.265625 126.820312 16.769531 128.46875 17.0625 C 130.125 17.363281 131.941406 17.515625 133.921875 17.515625 C 135.910156 17.515625 137.960938 17.257812 140.078125 16.75 L 140.59375 18.015625 C 135.851562 20.296875 131.070312 21.4375 126.25 21.4375 C 115.164062 21.4375 103.875 15.304688 92.375 3.046875 L 32.234375 -60.78125 L 32.234375 -8.875 C 32.234375 -6.757812 32.992188 -4.960938 34.515625 -3.484375 C 36.035156 -2.003906 37.851562 -1.265625 39.96875 -1.265625 L 42.375 -1.265625 L 42.375 0 L 3.9375 0 L 3.9375 -1.265625 L 6.21875 -1.265625 C 8.414062 -1.265625 10.273438 -2.003906 11.796875 -3.484375 C 13.316406 -4.960938 14.078125 -6.804688 14.078125 -9.015625 L 14.078125 -80.1875 C 9.929688 -84.925781 6.800781 -88.25 4.6875 -90.15625 C 2.570312 -92.0625 0.691406 -93.644531 -0.953125 -94.90625 C -2.597656 -96.175781 -4.1875 -97.238281 -5.71875 -98.09375 C -9.269531 -100.113281 -12.125 -101.289062 -14.28125 -101.625 C -16.4375 -101.96875 -18.460938 -102.140625 -20.359375 -102.140625 C -22.265625 -102.140625 -24.316406 -101.757812 -26.515625 -101 L -27.03125 -102.28125 C -22.375 -104.976562 -17.59375 -106.328125 -12.6875 -106.328125 C -2.03125 -106.328125 9.257812 -99.984375 21.1875 -87.296875 L 77.90625 -27.03125 L 77.90625 -79.8125 C 77.820312 -82.007812 77.019531 -83.847656 75.5 -85.328125 C 73.976562 -86.804688 72.160156 -87.546875 70.046875 -87.546875 L 67.75 -87.546875 L 67.75 -88.828125 L 106.203125 -88.828125 L 106.203125 -87.546875 L 103.796875 -87.546875 C 101.679688 -87.546875 99.859375 -86.804688 98.328125 -85.328125 C 96.804688 -83.847656 96.003906 -82.050781 95.921875 -79.9375 L 95.921875 -7.734375 L 97.953125 -5.703125 C 98.460938 -5.203125 99.242188 -4.335938 100.296875 -3.109375 C 101.359375 -1.878906 102.3125 -0.820312 103.15625 0.0625 C 104 0.945312 105.078125 2.066406 106.390625 3.421875 C 107.703125 4.773438 108.925781 5.957031 110.0625 6.96875 C 111.207031 7.988281 112.5625 9.085938 114.125 10.265625 C 115.695312 11.453125 117.179688 12.445312 118.578125 13.25 Z M 118.578125 13.25 "/></g></g></g><g fill="#ffffff" fill-opacity="1"><g transform="translate(79.444878, 259.823304)"><g><path d="M 24.1875 -9.171875 L 24.1875 -22.140625 C 24.1875 -23.328125 23.875 -24.171875 23.25 -24.671875 C 22.632812 -25.179688 21.640625 -25.4375 20.265625 -25.4375 L 20.265625 -26.125 L 28.796875 -26.125 L 28.796875 -25.4375 C 27.671875 -25.4375 26.84375 -25.132812 26.3125 -24.53125 C 25.78125 -23.925781 25.515625 -23.128906 25.515625 -22.140625 L 25.515625 0.375 L 24.875 0.375 L 5.59375 -21.375 L 5.59375 -3.84375 C 5.59375 -2.644531 5.90625 -1.816406 6.53125 -1.359375 C 7.164062 -0.910156 8.144531 -0.6875 9.46875 -0.6875 L 9.734375 -0.6875 L 9.734375 0 L 0.578125 0 L 0.578125 -0.6875 C 3.035156 -0.6875 4.265625 -1.703125 4.265625 -3.734375 L 4.265625 -22.890625 C 4.109375 -23.046875 3.796875 -23.382812 3.328125 -23.90625 C 2.859375 -24.425781 2.40625 -24.804688 1.96875 -25.046875 C 1.539062 -25.285156 1.078125 -25.414062 0.578125 -25.4375 L 0.578125 -26.125 L 9.234375 -26.125 Z M 24.1875 -9.171875 "/></g></g></g><g fill="#ffffff" fill-opacity="1"><g transform="translate(117.513049, 259.823304)"><g><path d="M 15.59375 -26.703125 C 18.15625 -26.703125 20.515625 -26.15625 22.671875 -25.0625 C 24.828125 -23.96875 26.535156 -22.378906 27.796875 -20.296875 C 29.066406 -18.222656 29.703125 -15.78125 29.703125 -12.96875 C 29.703125 -10.457031 29.128906 -8.175781 27.984375 -6.125 C 26.847656 -4.070312 25.210938 -2.445312 23.078125 -1.25 C 20.953125 -0.0625 18.46875 0.53125 15.625 0.53125 C 12.894531 0.53125 10.460938 -0.0390625 8.328125 -1.1875 C 6.203125 -2.34375 4.539062 -3.945312 3.34375 -6 C 2.15625 -8.0625 1.5625 -10.421875 1.5625 -13.078125 C 1.5625 -15.691406 2.160156 -18.03125 3.359375 -20.09375 C 4.566406 -22.164062 6.234375 -23.785156 8.359375 -24.953125 C 10.492188 -26.117188 12.90625 -26.703125 15.59375 -26.703125 Z M 8.328125 -13.15625 C 8.328125 -11.125 8.570312 -9.171875 9.0625 -7.296875 C 9.5625 -5.421875 10.347656 -3.867188 11.421875 -2.640625 C 12.503906 -1.410156 13.894531 -0.796875 15.59375 -0.796875 C 17.0625 -0.796875 18.347656 -1.285156 19.453125 -2.265625 C 20.554688 -3.242188 21.410156 -4.640625 22.015625 -6.453125 C 22.628906 -8.265625 22.9375 -10.382812 22.9375 -12.8125 C 22.9375 -15.445312 22.632812 -17.707031 22.03125 -19.59375 C 21.4375 -21.488281 20.585938 -22.921875 19.484375 -23.890625 C 18.390625 -24.867188 17.101562 -25.359375 15.625 -25.359375 C 14.28125 -25.359375 13.054688 -24.910156 11.953125 -24.015625 C 10.859375 -23.117188 9.976562 -21.75 9.3125 -19.90625 C 8.65625 -18.070312 8.328125 -15.820312 8.328125 -13.15625 Z M 8.328125 -13.15625 "/></g></g></g><g fill="#ffffff" fill-opacity="1"><g transform="translate(157.558633, 259.823304)"><g><path d="M 23.34375 -19.734375 C 23.34375 -18.210938 22.8125 -16.929688 21.75 -15.890625 C 20.6875 -14.859375 19.164062 -14.148438 17.1875 -13.765625 L 17.1875 -13.6875 C 19.414062 -13.363281 21.179688 -12.601562 22.484375 -11.40625 C 23.796875 -10.21875 24.453125 -8.757812 24.453125 -7.03125 C 24.453125 -5.5625 24.015625 -4.296875 23.140625 -3.234375 C 22.265625 -2.171875 21.097656 -1.363281 19.640625 -0.8125 C 18.179688 -0.269531 16.601562 0 14.90625 0 L 0.578125 0 L 0.578125 -0.6875 C 1.515625 -0.6875 2.222656 -0.753906 2.703125 -0.890625 C 3.179688 -1.035156 3.539062 -1.332031 3.78125 -1.78125 C 4.019531 -2.238281 4.140625 -2.960938 4.140625 -3.953125 L 4.140625 -22.140625 C 4.140625 -23.046875 4.03125 -23.734375 3.8125 -24.203125 C 3.601562 -24.671875 3.265625 -24.988281 2.796875 -25.15625 C 2.328125 -25.320312 1.660156 -25.414062 0.796875 -25.4375 L 0.796875 -26.125 L 14.375 -26.125 C 15.738281 -26.125 17.101562 -25.921875 18.46875 -25.515625 C 19.84375 -25.109375 21 -24.429688 21.9375 -23.484375 C 22.875 -22.535156 23.34375 -21.285156 23.34375 -19.734375 Z M 11.25 -14.265625 C 13.332031 -14.265625 14.804688 -14.789062 15.671875 -15.84375 C 16.535156 -16.894531 16.96875 -18.117188 16.96875 -19.515625 C 16.96875 -20.804688 16.585938 -21.992188 15.828125 -23.078125 C 15.066406 -24.171875 13.796875 -24.71875 12.015625 -24.71875 L 10.234375 -24.71875 L 10.234375 -14.265625 Z M 12.4375 -1.328125 C 14.007812 -1.328125 15.273438 -1.820312 16.234375 -2.8125 C 17.203125 -3.800781 17.6875 -5.117188 17.6875 -6.765625 C 17.6875 -8.492188 17.148438 -9.941406 16.078125 -11.109375 C 15.015625 -12.273438 13.34375 -12.859375 11.0625 -12.859375 L 10.234375 -12.859375 L 10.234375 -3.875 C 10.234375 -2.863281 10.410156 -2.1875 10.765625 -1.84375 C 11.117188 -1.5 11.675781 -1.328125 12.4375 -1.328125 Z M 12.4375 -1.328125 "/></g></g></g><g fill="#ffffff" fill-opacity="1"><g transform="translate(191.671964, 259.823304)"><g><path d="M 14.03125 -25.4375 C 13.070312 -25.414062 12.347656 -25.34375 11.859375 -25.21875 C 11.378906 -25.09375 11.007812 -24.800781 10.75 -24.34375 C 10.5 -23.882812 10.375 -23.148438 10.375 -22.140625 L 10.375 -3.953125 C 10.375 -2.960938 10.492188 -2.238281 10.734375 -1.78125 C 10.984375 -1.332031 11.347656 -1.039062 11.828125 -0.90625 C 12.304688 -0.78125 13.039062 -0.707031 14.03125 -0.6875 L 14.03125 0 L 0.640625 0 L 0.640625 -0.6875 C 1.609375 -0.6875 2.332031 -0.75 2.8125 -0.875 C 3.289062 -1 3.65625 -1.296875 3.90625 -1.765625 C 4.164062 -2.234375 4.296875 -2.960938 4.296875 -3.953125 L 4.296875 -22.140625 C 4.296875 -23.128906 4.164062 -23.859375 3.90625 -24.328125 C 3.65625 -24.796875 3.28125 -25.09375 2.78125 -25.21875 C 2.289062 -25.34375 1.578125 -25.414062 0.640625 -25.4375 L 0.640625 -26.125 L 14.03125 -26.125 Z M 14.03125 -25.4375 "/></g></g></g><g fill="#ffffff" fill-opacity="1"><g transform="translate(215.061603, 259.823304)"><g><path d="M 15.359375 -25.4375 C 14.066406 -25.414062 13.128906 -25.347656 12.546875 -25.234375 C 11.960938 -25.117188 11.523438 -24.832031 11.234375 -24.375 C 10.941406 -23.914062 10.796875 -23.171875 10.796875 -22.140625 L 10.796875 -3.5 C 10.796875 -2.757812 10.976562 -2.222656 11.34375 -1.890625 C 11.71875 -1.566406 12.3125 -1.40625 13.125 -1.40625 L 15.890625 -1.40625 C 18.023438 -1.40625 19.71875 -2.015625 20.96875 -3.234375 C 22.226562 -4.453125 23.160156 -6.34375 23.765625 -8.90625 L 24.453125 -8.90625 L 23.546875 0 L 0.609375 0 L 0.609375 -0.6875 C 1.722656 -0.707031 2.554688 -0.800781 3.109375 -0.96875 C 3.671875 -1.132812 4.078125 -1.445312 4.328125 -1.90625 C 4.585938 -2.363281 4.71875 -3.0625 4.71875 -4 L 4.71875 -22.140625 C 4.71875 -23.171875 4.570312 -23.914062 4.28125 -24.375 C 3.988281 -24.832031 3.582031 -25.117188 3.0625 -25.234375 C 2.539062 -25.347656 1.722656 -25.414062 0.609375 -25.4375 L 0.609375 -26.125 L 15.359375 -26.125 Z M 15.359375 -25.4375 "/></g></g></g><g fill="#ffffff" fill-opacity="1"><g transform="translate(249.174939, 259.823304)"><g><path d="M 14.03125 -25.4375 C 13.070312 -25.414062 12.347656 -25.34375 11.859375 -25.21875 C 11.378906 -25.09375 11.007812 -24.800781 10.75 -24.34375 C 10.5 -23.882812 10.375 -23.148438 10.375 -22.140625 L 10.375 -3.953125 C 10.375 -2.960938 10.492188 -2.238281 10.734375 -1.78125 C 10.984375 -1.332031 11.347656 -1.039062 11.828125 -0.90625 C 12.304688 -0.78125 13.039062 -0.707031 14.03125 -0.6875 L 14.03125 0 L 0.640625 0 L 0.640625 -0.6875 C 1.609375 -0.6875 2.332031 -0.75 2.8125 -0.875 C 3.289062 -1 3.65625 -1.296875 3.90625 -1.765625 C 4.164062 -2.234375 4.296875 -2.960938 4.296875 -3.953125 L 4.296875 -22.140625 C 4.296875 -23.128906 4.164062 -23.859375 3.90625 -24.328125 C 3.65625 -24.796875 3.28125 -25.09375 2.78125 -25.21875 C 2.289062 -25.34375 1.578125 -25.414062 0.640625 -25.4375 L 0.640625 -26.125 L 14.03125 -26.125 Z M 14.03125 -25.4375 "/></g></g></g><g fill="#ffffff" fill-opacity="1"><g transform="translate(272.564579, 259.823304)"><g><path d="M 10.1875 -26.703125 C 11.382812 -26.703125 12.410156 -26.578125 13.265625 -26.328125 C 14.128906 -26.085938 15.082031 -25.753906 16.125 -25.328125 C 16.476562 -25.171875 16.816406 -25.035156 17.140625 -24.921875 C 17.472656 -24.816406 17.753906 -24.765625 17.984375 -24.765625 C 18.390625 -24.765625 18.71875 -24.925781 18.96875 -25.25 C 19.226562 -25.582031 19.359375 -26.066406 19.359375 -26.703125 L 20.078125 -26.703125 L 20.078125 -18.25 L 19.359375 -18.25 C 19.109375 -19.59375 18.5625 -20.796875 17.71875 -21.859375 C 16.882812 -22.929688 15.84375 -23.757812 14.59375 -24.34375 C 13.351562 -24.925781 12.023438 -25.21875 10.609375 -25.21875 C 9.066406 -25.21875 7.800781 -24.84375 6.8125 -24.09375 C 5.820312 -23.34375 5.328125 -22.410156 5.328125 -21.296875 C 5.328125 -20.460938 5.617188 -19.753906 6.203125 -19.171875 C 6.785156 -18.585938 7.515625 -18.101562 8.390625 -17.71875 C 9.265625 -17.34375 10.472656 -16.898438 12.015625 -16.390625 C 13.566406 -15.878906 14.859375 -15.410156 15.890625 -14.984375 C 16.929688 -14.554688 17.847656 -14.023438 18.640625 -13.390625 C 19.523438 -12.648438 20.25 -11.769531 20.8125 -10.75 C 21.382812 -9.738281 21.671875 -8.601562 21.671875 -7.34375 C 21.671875 -5.789062 21.253906 -4.414062 20.421875 -3.21875 C 19.585938 -2.03125 18.414062 -1.109375 16.90625 -0.453125 C 15.394531 0.203125 13.648438 0.53125 11.671875 0.53125 C 10.429688 0.53125 9.382812 0.421875 8.53125 0.203125 C 7.6875 -0.00390625 6.820312 -0.285156 5.9375 -0.640625 C 5.09375 -0.992188 4.46875 -1.171875 4.0625 -1.171875 C 3.613281 -1.171875 3.222656 -1.03125 2.890625 -0.75 C 2.554688 -0.476562 2.265625 -0.0507812 2.015625 0.53125 L 1.296875 0.53125 L 1.296875 -9.046875 L 2.015625 -9.046875 C 2.472656 -6.515625 3.554688 -4.503906 5.265625 -3.015625 C 6.972656 -1.535156 9.046875 -0.796875 11.484375 -0.796875 C 13.304688 -0.796875 14.75 -1.171875 15.8125 -1.921875 C 16.882812 -2.671875 17.421875 -3.675781 17.421875 -4.9375 C 17.421875 -5.925781 17.109375 -6.765625 16.484375 -7.453125 C 15.867188 -8.140625 15.097656 -8.695312 14.171875 -9.125 C 13.242188 -9.5625 11.992188 -10.046875 10.421875 -10.578125 C 8.460938 -11.253906 6.878906 -11.890625 5.671875 -12.484375 C 4.472656 -13.085938 3.445312 -13.925781 2.59375 -15 C 1.75 -16.082031 1.328125 -17.445312 1.328125 -19.09375 C 1.328125 -20.539062 1.707031 -21.835938 2.46875 -22.984375 C 3.226562 -24.140625 4.28125 -25.046875 5.625 -25.703125 C 6.96875 -26.367188 8.488281 -26.703125 10.1875 -26.703125 Z M 10.1875 -26.703125 "/></g></g></g><g fill="#d4b34a" fill-opacity="1"><g transform="translate(118.618385, 288.214375)"><g><path d="M 9.796875 -2.921875 C 9.441406 -2.003906 8.863281 -1.269531 8.0625 -0.71875 C 7.25 -0.144531 6.351562 0.140625 5.375 0.140625 C 4.0625 0.140625 2.9375 -0.34375 2 -1.3125 C 1.082031 -2.269531 0.625 -3.414062 0.625 -4.75 C 0.625 -5.414062 0.75 -6.046875 1 -6.640625 C 1.238281 -7.234375 1.570312 -7.753906 2 -8.203125 C 2.9375 -9.171875 4.0625 -9.65625 5.375 -9.65625 C 6.351562 -9.65625 7.242188 -9.378906 8.046875 -8.828125 C 8.847656 -8.265625 9.425781 -7.53125 9.78125 -6.625 L 8.703125 -6.625 C 8.191406 -7.570312 7.425781 -8.195312 6.40625 -8.5 C 6.070312 -8.59375 5.679688 -8.640625 5.234375 -8.640625 C 4.796875 -8.640625 4.347656 -8.539062 3.890625 -8.34375 C 3.429688 -8.125 3.035156 -7.835938 2.703125 -7.484375 C 1.972656 -6.722656 1.609375 -5.8125 1.609375 -4.75 C 1.609375 -3.695312 1.972656 -2.789062 2.703125 -2.03125 C 3.441406 -1.257812 4.332031 -0.875 5.375 -0.875 C 6.09375 -0.875 6.75 -1.054688 7.34375 -1.421875 C 7.9375 -1.796875 8.394531 -2.296875 8.71875 -2.921875 Z M 9.796875 -2.921875 "/></g></g></g><g fill="#d4b34a" fill-opacity="1"><g transform="translate(134.443762, 288.214375)"><g><path d="M 9.453125 -4.796875 C 9.453125 -5.867188 9.066406 -6.785156 8.296875 -7.546875 C 7.523438 -8.316406 6.597656 -8.703125 5.515625 -8.703125 C 4.441406 -8.703125 3.523438 -8.316406 2.765625 -7.546875 C 1.992188 -6.785156 1.609375 -5.867188 1.609375 -4.796875 C 1.609375 -3.710938 1.992188 -2.785156 2.765625 -2.015625 C 3.523438 -1.253906 4.441406 -0.875 5.515625 -0.875 C 6.597656 -0.875 7.523438 -1.253906 8.296875 -2.015625 C 9.066406 -2.785156 9.453125 -3.710938 9.453125 -4.796875 Z M 10.421875 -4.796875 C 10.421875 -4.117188 10.296875 -3.484375 10.046875 -2.890625 C 9.785156 -2.285156 9.4375 -1.765625 9 -1.328125 C 8.550781 -0.878906 8.023438 -0.53125 7.421875 -0.28125 C 6.828125 -0.0195312 6.191406 0.109375 5.515625 0.109375 C 4.847656 0.109375 4.21875 -0.0195312 3.625 -0.28125 C 3.03125 -0.53125 2.515625 -0.878906 2.078125 -1.328125 C 1.628906 -1.765625 1.273438 -2.285156 1.015625 -2.890625 C 0.753906 -3.484375 0.625 -4.117188 0.625 -4.796875 C 0.625 -5.460938 0.753906 -6.097656 1.015625 -6.703125 C 1.273438 -7.296875 1.628906 -7.8125 2.078125 -8.25 C 2.515625 -8.6875 3.03125 -9.039062 3.625 -9.3125 C 4.21875 -9.5625 4.847656 -9.6875 5.515625 -9.6875 C 6.191406 -9.6875 6.828125 -9.5625 7.421875 -9.3125 C 8.023438 -9.039062 8.550781 -8.6875 9 -8.25 C 9.4375 -7.8125 9.785156 -7.296875 10.046875 -6.703125 C 10.296875 -6.097656 10.421875 -5.460938 10.421875 -4.796875 Z M 10.421875 -4.796875 "/></g></g></g><g fill="#d4b34a" fill-opacity="1"><g transform="translate(151.110073, 288.214375)"><g><path d="M 7.953125 -3.15625 C 7.953125 -2.125 7.613281 -1.3125 6.9375 -0.71875 C 6.300781 -0.15625 5.457031 0.125 4.40625 0.125 C 3.332031 0.125 2.476562 -0.15625 1.84375 -0.71875 C 1.175781 -1.3125 0.84375 -2.125 0.84375 -3.15625 L 0.84375 -9.53125 L 1.828125 -9.53125 L 1.828125 -3.015625 C 1.828125 -2.296875 2.085938 -1.742188 2.609375 -1.359375 C 3.054688 -1.023438 3.65625 -0.859375 4.40625 -0.859375 C 5.570312 -0.859375 6.351562 -1.25 6.75 -2.03125 C 6.894531 -2.300781 6.96875 -2.628906 6.96875 -3.015625 L 6.96875 -9.53125 L 7.953125 -9.53125 Z M 7.953125 -3.15625 "/></g></g></g><g fill="#d4b34a" fill-opacity="1"><g transform="translate(165.505856, 288.214375)"><g><path d="M 0.28125 -8.640625 L 0.28125 -9.5625 L 5.890625 -9.5625 L 5.890625 -8.640625 L 3.578125 -8.640625 L 3.578125 -0.03125 L 2.59375 -0.03125 L 2.59375 -8.640625 Z M 0.28125 -8.640625 "/></g></g></g><g fill="#d4b34a" fill-opacity="1"><g transform="translate(177.28071, 288.214375)"><g><path d="M 6.71875 0 L 1.046875 0 L 1.046875 -9.53125 L 6.71875 -9.53125 L 6.71875 -8.625 L 2.03125 -8.625 L 2.03125 -5.234375 L 6.578125 -5.234375 L 6.578125 -4.296875 L 2.03125 -4.296875 L 2.03125 -0.90625 L 6.71875 -0.90625 Z M 6.71875 0 "/></g></g></g><g fill="#d4b34a" fill-opacity="1"><g transform="translate(190.653353, 288.214375)"><g><path d="M 2.03125 -0.984375 L 5.4375 -0.984375 L 5.4375 0 L 1.046875 0 L 1.046875 -9.53125 L 2.03125 -9.53125 Z M 2.03125 -0.984375 "/></g></g></g><g fill="#d4b34a" fill-opacity="1"><g transform="translate(201.979713, 288.214375)"><g><path d="M 2.03125 -0.984375 L 5.4375 -0.984375 L 5.4375 0 L 1.046875 0 L 1.046875 -9.53125 L 2.03125 -9.53125 Z M 2.03125 -0.984375 "/></g></g></g><g fill="#d4b34a" fill-opacity="1"><g transform="translate(213.306073, 288.214375)"><g><path d="M 6.71875 0 L 1.046875 0 L 1.046875 -9.53125 L 6.71875 -9.53125 L 6.71875 -8.625 L 2.03125 -8.625 L 2.03125 -5.234375 L 6.578125 -5.234375 L 6.578125 -4.296875 L 2.03125 -4.296875 L 2.03125 -0.90625 L 6.71875 -0.90625 Z M 6.71875 0 "/></g></g></g><g fill="#d4b34a" fill-opacity="1"><g transform="translate(226.678723, 288.214375)"><g><path d="M 2.03125 -4.703125 L 4.25 -4.703125 C 4.800781 -4.703125 5.253906 -4.890625 5.609375 -5.265625 C 5.972656 -5.648438 6.15625 -6.125 6.15625 -6.6875 C 6.15625 -7.238281 5.984375 -7.695312 5.640625 -8.0625 C 5.285156 -8.414062 4.820312 -8.59375 4.25 -8.59375 L 2.03125 -8.59375 Z M 7.140625 -6.65625 C 7.140625 -5.820312 6.84375 -5.128906 6.25 -4.578125 C 5.726562 -4.097656 5.097656 -3.832031 4.359375 -3.78125 L 7.28125 0 L 5.96875 0 L 3.1875 -3.765625 L 2.03125 -3.765625 L 2.03125 0 L 1.046875 0 L 1.046875 -9.53125 L 4.109375 -9.53125 C 4.953125 -9.53125 5.664062 -9.265625 6.25 -8.734375 C 6.84375 -8.171875 7.140625 -7.476562 7.140625 -6.65625 Z M 7.140625 -6.65625 "/></g></g></g><g fill="#d4b34a" fill-opacity="1"><g transform="translate(239.911216, 288.214375)"><g><path d="M 2.03125 0 L 1.046875 0 L 1.046875 -9.53125 L 2.03125 -9.53125 Z M 2.03125 0 "/></g></g></g><g fill="#d4b34a" fill-opacity="1"><g transform="translate(248.602649, 288.214375)"><g><path d="M 6.71875 0 L 1.046875 0 L 1.046875 -9.53125 L 6.71875 -9.53125 L 6.71875 -8.625 L 2.03125 -8.625 L 2.03125 -5.234375 L 6.578125 -5.234375 L 6.578125 -4.296875 L 2.03125 -4.296875 L 2.03125 -0.90625 L 6.71875 -0.90625 Z M 6.71875 0 "/></g></g></g></svg>