<svg xmlns="http://www.w3.org/2000/svg" xmlns:xlink="http://www.w3.org/1999/xlink" width="500" zoomAndPan="magnify" viewBox="0 0 375 374.999991" height="500" preserveAspectRatio="xMidYMid meet" version="1.0"><defs><g/><clipPath id="24bc5d9b5e"><path d="M 162.96875 59.46875 L 277.769531 59.46875 L 277.769531 124.449219 L 162.96875 124.449219 Z M 162.96875 59.46875 " clip-rule="nonzero"/></clipPath></defs><g clip-path="url(#24bc5d9b5e)"><path fill="#d4b34a" d="M 278.039062 81.980469 L 274.886719 84.921875 L 275.351562 86.9375 C 260.238281 103.6875 250.257812 111.609375 247.34375 107.390625 C 245.019531 99.375 246.183594 91.449219 249.84375 83.589844 L 252.953125 82.132812 L 253.554688 75.234375 L 248.773438 80.242188 L 249.753906 83.597656 C 245.800781 90.226562 241.554688 96.101562 236.703125 100.390625 C 231.589844 104.910156 230.03125 105.542969 226.722656 98.4375 C 224.273438 93.171875 223.4375 86.117188 221.789062 79.957031 L 225.976562 75.070312 L 220.503906 59.484375 L 215.03125 75.070312 L 219.21875 79.957031 C 217.574219 86.113281 216.734375 93.171875 214.285156 98.4375 C 210.976562 105.542969 209.417969 104.910156 204.304688 100.390625 C 199.449219 96.101562 195.207031 90.226562 191.253906 83.597656 L 192.234375 80.242188 L 187.453125 75.238281 L 188.054688 82.132812 L 191.164062 83.589844 C 194.824219 91.453125 195.988281 99.375 193.664062 107.390625 C 190.75 111.609375 180.769531 103.6875 165.65625 86.9375 L 166.117188 84.921875 L 162.96875 81.980469 L 163.589844 86.246094 L 165.457031 86.992188 L 186.988281 124.480469 L 180.378906 106.269531 C 180.511719 106.378906 180.648438 106.488281 180.78125 106.59375 C 184.148438 109.292969 190.058594 113.664062 194.535156 111.0625 C 195.292969 110.621094 195.929688 110.015625 196.425781 109.296875 L 196.734375 108.847656 L 196.886719 108.324219 C 197.789062 105.214844 198.210938 102.125 198.214844 99.066406 C 199.445312 100.421875 200.734375 101.710938 202.085938 102.90625 C 204.359375 104.914062 207.246094 107.566406 210.53125 107.082031 C 214.089844 106.558594 215.972656 102.765625 217.328125 99.851562 C 218.832031 96.621094 219.730469 93.015625 220.503906 89.480469 C 221.28125 93.015625 222.179688 96.621094 223.683594 99.851562 C 225.039062 102.765625 226.921875 106.558594 230.476562 107.082031 C 233.765625 107.566406 236.648438 104.914062 238.925781 102.90625 C 240.277344 101.710938 241.566406 100.421875 242.792969 99.066406 C 242.800781 102.125 243.222656 105.214844 244.121094 108.324219 L 244.273438 108.847656 L 244.585938 109.296875 C 245.082031 110.015625 245.714844 110.621094 246.476562 111.0625 C 250.953125 113.667969 256.859375 109.292969 260.230469 106.59375 C 260.363281 106.488281 260.5 106.378906 260.632812 106.269531 L 254.828125 123.132812 L 275.550781 86.992188 L 277.417969 86.246094 Z M 278.039062 81.980469 " fill-opacity="1" fill-rule="evenodd"/></g><path fill="#d4b34a" d="M 209.203125 95.890625 C 209.589844 97.652344 210.023438 99.433594 210.613281 101.136719 C 211.007812 100.621094 211.539062 99.757812 212.242188 98.3125 C 211.171875 94.355469 210.582031 89.859375 209.203125 86.246094 C 207.710938 90.152344 207.144531 95.089844 205.894531 99.261719 C 206.449219 99.75 207.179688 100.375 207.875 100.898438 C 208.425781 99.269531 208.835938 97.570312 209.203125 95.890625 Z M 209.203125 95.890625 " fill-opacity="1" fill-rule="evenodd"/><path fill="#d4b34a" d="M 231.773438 95.890625 C 232.140625 97.578125 232.554688 99.28125 233.105469 100.917969 C 233.800781 100.402344 234.53125 99.773438 235.089844 99.285156 C 233.832031 95.109375 233.265625 90.160156 231.773438 86.246094 C 230.398438 89.847656 229.8125 94.324219 228.746094 98.269531 C 229.445312 99.710938 229.980469 100.582031 230.375 101.105469 C 230.957031 99.414062 231.390625 97.640625 231.773438 95.890625 Z M 231.773438 95.890625 " fill-opacity="1" fill-rule="evenodd"/><path fill="#d4b34a" d="M 251.722656 106 C 252.132812 103.320312 252.828125 100.503906 252.898438 97.988281 C 251.316406 99.660156 249.929688 101.886719 248.480469 103.925781 C 248.617188 104.671875 248.78125 105.410156 248.976562 106.148438 C 249.417969 105.574219 249.835938 104.984375 250.25 104.394531 C 250.117188 105.121094 249.996094 105.851562 249.902344 106.589844 C 250.355469 106.53125 250.945312 106.359375 251.722656 106 Z M 251.722656 106 " fill-opacity="1" fill-rule="evenodd"/><path fill="#d4b34a" d="M 192.527344 103.925781 C 191.078125 101.886719 189.691406 99.660156 188.109375 97.988281 C 188.179688 100.503906 188.878906 103.320312 189.285156 106 C 190.0625 106.359375 190.652344 106.53125 191.105469 106.585938 C 191.007812 105.851562 190.886719 105.117188 190.757812 104.394531 C 191.167969 104.984375 191.589844 105.574219 192.03125 106.148438 C 192.226562 105.410156 192.394531 104.671875 192.527344 103.925781 Z M 192.527344 103.925781 " fill-opacity="1" fill-rule="evenodd"/><g fill="#d4b34a" fill-opacity="1"><g transform="translate(96.956525, 261.50165)"><g><path d="M 171.234375 19.140625 C 173.253906 20.304688 175.546875 21.40625 178.109375 22.4375 C 180.671875 23.476562 183.144531 24.210938 185.53125 24.640625 C 187.914062 25.066406 190.539062 25.28125 193.40625 25.28125 C 196.28125 25.28125 199.242188 24.914062 202.296875 24.1875 L 203.03125 26.015625 C 196.1875 29.316406 189.285156 30.96875 182.328125 30.96875 C 166.316406 30.96875 150.007812 22.109375 133.40625 4.390625 L 46.546875 -87.765625 L 46.546875 -12.828125 C 46.546875 -9.773438 47.644531 -7.175781 49.84375 -5.03125 C 52.039062 -2.894531 54.664062 -1.828125 57.71875 -1.828125 L 61.203125 -1.828125 L 61.203125 0 L 5.6875 0 L 5.6875 -1.828125 L 8.984375 -1.828125 C 12.160156 -1.828125 14.847656 -2.894531 17.046875 -5.03125 C 19.242188 -7.175781 20.34375 -9.835938 20.34375 -13.015625 L 20.34375 -115.796875 C 14.351562 -122.640625 9.832031 -127.4375 6.78125 -130.1875 C 3.726562 -132.9375 1.015625 -135.226562 -1.359375 -137.0625 C -3.742188 -138.894531 -6.035156 -140.421875 -8.234375 -141.640625 C -13.367188 -144.566406 -17.492188 -146.273438 -20.609375 -146.765625 C -23.722656 -147.253906 -26.65625 -147.5 -29.40625 -147.5 C -32.15625 -147.5 -35.117188 -146.953125 -38.296875 -145.859375 L -39.03125 -147.6875 C -32.3125 -151.59375 -25.40625 -153.546875 -18.3125 -153.546875 C -2.925781 -153.546875 13.378906 -144.382812 30.609375 -126.0625 L 112.515625 -39.03125 L 112.515625 -115.25 C 112.390625 -118.425781 111.226562 -121.082031 109.03125 -123.21875 C 106.832031 -125.363281 104.207031 -126.4375 101.15625 -126.4375 L 97.84375 -126.4375 L 97.84375 -128.265625 L 153.375 -128.265625 L 153.375 -126.4375 L 149.890625 -126.4375 C 146.835938 -126.4375 144.210938 -125.363281 142.015625 -123.21875 C 139.816406 -121.082031 138.65625 -118.488281 138.53125 -115.4375 L 138.53125 -11.171875 L 141.46875 -8.25 C 142.195312 -7.507812 143.320312 -6.253906 144.84375 -4.484375 C 146.375 -2.710938 147.75 -1.1875 148.96875 0.09375 C 150.195312 1.375 151.753906 2.988281 153.640625 4.9375 C 155.535156 6.894531 157.304688 8.609375 158.953125 10.078125 C 160.609375 11.546875 162.566406 13.132812 164.828125 14.84375 C 167.085938 16.550781 169.222656 17.984375 171.234375 19.140625 Z M 171.234375 19.140625 "/></g></g></g></svg>